<mxfile host="app.diagrams.net" modified="2023-03-03T08:58:17.391Z" agent="5.0 (X11; Linux x86_64) AppleWebKit/537.36 (KHTML, like Gecko) Chrome/110.0.0.0 Safari/537.36" etag="JpLHlSjMuREjWv_dp-SH" version="20.8.23" type="github">
  <diagram name="Page-1" id="KdZHtrWoCW37XqJNuPZM">
    <mxGraphModel dx="3979" dy="4076" grid="1" gridSize="10" guides="1" tooltips="1" connect="1" arrows="1" fold="1" page="1" pageScale="1" pageWidth="2336" pageHeight="1654" math="0" shadow="0">
      <root>
        <mxCell id="0" />
        <mxCell id="1" parent="0" />
        <mxCell id="PkI1gQ4OXZkmpvxFJ7Tn-19" value="DAG" style="swimlane;childLayout=stackLayout;horizontal=1;startSize=30;horizontalStack=0;rounded=1;fontSize=14;fontStyle=0;strokeWidth=2;resizeParent=0;resizeLast=1;shadow=0;dashed=0;align=center;" parent="1" vertex="1">
          <mxGeometry x="175" y="-2000" width="160" height="120" as="geometry" />
        </mxCell>
        <mxCell id="PkI1gQ4OXZkmpvxFJ7Tn-20" value="__init__&#xa;create_dag&#xa;add_task(task)" style="align=left;strokeColor=none;fillColor=none;spacingLeft=4;fontSize=12;verticalAlign=top;resizable=0;rotatable=0;part=1;" parent="PkI1gQ4OXZkmpvxFJ7Tn-19" vertex="1">
          <mxGeometry y="30" width="160" height="90" as="geometry" />
        </mxCell>
        <mxCell id="PkI1gQ4OXZkmpvxFJ7Tn-45" value="&lt;p style=&quot;margin:0px;margin-top:4px;text-align:center;&quot;&gt;&lt;i&gt;&amp;lt;&amp;lt;&lt;/i&gt;&lt;i style=&quot;border-color: var(--border-color);&quot;&gt;Abstract&lt;/i&gt;&lt;i&gt;&amp;gt;&amp;gt;&lt;/i&gt;&lt;br&gt;&lt;b&gt;Task&lt;/b&gt;&lt;/p&gt;&lt;hr size=&quot;1&quot;&gt;&lt;p style=&quot;margin:0px;margin-left:4px;&quot;&gt;__init__(&lt;span style=&quot;background-color: initial;&quot;&gt;)&lt;/span&gt;&lt;/p&gt;&lt;p style=&quot;margin:0px;margin-left:4px;&quot;&gt;set_upstream()&lt;br style=&quot;border-color: var(--border-color); padding: 0px; margin: 0px;&quot;&gt;set_downstream()&lt;br&gt;&lt;/p&gt;" style="verticalAlign=top;align=left;overflow=fill;fontSize=12;fontFamily=Helvetica;html=1;" parent="1" vertex="1">
          <mxGeometry x="160" y="-1780" width="190" height="100" as="geometry" />
        </mxCell>
        <mxCell id="PkI1gQ4OXZkmpvxFJ7Tn-46" value="&lt;p style=&quot;margin:0px;margin-top:4px;text-align:center;&quot;&gt;&lt;i&gt;&amp;lt;&amp;lt;&lt;/i&gt;&lt;i style=&quot;border-color: var(--border-color);&quot;&gt;Abstract&lt;/i&gt;&lt;i&gt;&amp;gt;&amp;gt;&lt;/i&gt;&lt;br&gt;&lt;b&gt;DBconnection&lt;/b&gt;&lt;/p&gt;&lt;hr size=&quot;1&quot;&gt;&lt;p style=&quot;margin:0px;margin-left:4px;&quot;&gt;connect_to_db()&lt;/p&gt;" style="verticalAlign=top;align=left;overflow=fill;fontSize=12;fontFamily=Helvetica;html=1;" parent="1" vertex="1">
          <mxGeometry x="-540" y="-1824" width="150" height="60" as="geometry" />
        </mxCell>
        <mxCell id="PkI1gQ4OXZkmpvxFJ7Tn-47" value="&lt;p style=&quot;margin:0px;margin-top:4px;text-align:center;&quot;&gt;&lt;i&gt;&amp;lt;&amp;lt;&lt;/i&gt;&lt;i style=&quot;border-color: var(--border-color);&quot;&gt;Abstract&lt;/i&gt;&lt;i&gt;&amp;gt;&amp;gt;&lt;/i&gt;&lt;br&gt;&lt;b&gt;DataImportation&lt;/b&gt;&lt;/p&gt;&lt;hr size=&quot;1&quot;&gt;&lt;p style=&quot;margin:0px;margin-left:4px;&quot;&gt;&lt;/p&gt;&lt;p style=&quot;margin:0px;margin-left:4px;&quot;&gt;import_data()&lt;/p&gt;" style="verticalAlign=top;align=left;overflow=fill;fontSize=12;fontFamily=Helvetica;html=1;" parent="1" vertex="1">
          <mxGeometry x="240" y="-1630" width="150" height="60" as="geometry" />
        </mxCell>
        <mxCell id="PkI1gQ4OXZkmpvxFJ7Tn-48" value="&lt;p style=&quot;margin:0px;margin-top:4px;text-align:center;&quot;&gt;&lt;i&gt;&amp;lt;&amp;lt;&lt;/i&gt;&lt;i style=&quot;border-color: var(--border-color);&quot;&gt;Abstract&lt;/i&gt;&lt;i&gt;&amp;gt;&amp;gt;&lt;/i&gt;&lt;br&gt;&lt;b&gt;DataCleansing&lt;/b&gt;&lt;/p&gt;&lt;hr size=&quot;1&quot;&gt;&lt;p style=&quot;margin:0px;margin-left:4px;&quot;&gt;&lt;/p&gt;&lt;p style=&quot;margin:0px;margin-left:4px;&quot;&gt;update_data()&lt;/p&gt;" style="verticalAlign=top;align=left;overflow=fill;fontSize=12;fontFamily=Helvetica;html=1;" parent="1" vertex="1">
          <mxGeometry x="680" y="-1630" width="150" height="60" as="geometry" />
        </mxCell>
        <mxCell id="PkI1gQ4OXZkmpvxFJ7Tn-49" value="" style="endArrow=block;dashed=1;endFill=0;endSize=12;html=1;rounded=0;exitX=0.4;exitY=-0.033;exitDx=0;exitDy=0;exitPerimeter=0;" parent="1" source="PkI1gQ4OXZkmpvxFJ7Tn-47" edge="1">
          <mxGeometry width="160" relative="1" as="geometry">
            <mxPoint x="90" y="-1680" as="sourcePoint" />
            <mxPoint x="250" y="-1680" as="targetPoint" />
            <Array as="points">
              <mxPoint x="300" y="-1650" />
              <mxPoint x="250" y="-1650" />
            </Array>
          </mxGeometry>
        </mxCell>
        <mxCell id="PkI1gQ4OXZkmpvxFJ7Tn-51" value="" style="endArrow=block;dashed=1;endFill=0;endSize=12;html=1;rounded=0;exitX=0.5;exitY=0;exitDx=0;exitDy=0;" parent="1" source="PkI1gQ4OXZkmpvxFJ7Tn-48" edge="1">
          <mxGeometry width="160" relative="1" as="geometry">
            <mxPoint x="90" y="-1680" as="sourcePoint" />
            <mxPoint x="250" y="-1680" as="targetPoint" />
            <Array as="points">
              <mxPoint x="755" y="-1650" />
              <mxPoint x="565" y="-1650" />
              <mxPoint x="435" y="-1650" />
              <mxPoint x="250" y="-1650" />
            </Array>
          </mxGeometry>
        </mxCell>
        <mxCell id="PkI1gQ4OXZkmpvxFJ7Tn-53" value="&lt;p style=&quot;margin:0px;margin-top:4px;text-align:center;&quot;&gt;&lt;b&gt;PostgresqlConnction&lt;/b&gt;&lt;/p&gt;&lt;hr size=&quot;1&quot;&gt;&lt;p style=&quot;margin:0px;margin-left:4px;&quot;&gt;&lt;/p&gt;&lt;p style=&quot;margin:0px;margin-left:4px;&quot;&gt;&lt;br&gt;&lt;/p&gt;" style="verticalAlign=top;align=left;overflow=fill;fontSize=12;fontFamily=Helvetica;html=1;" parent="1" vertex="1">
          <mxGeometry x="-550" y="-1704" width="170" height="50" as="geometry" />
        </mxCell>
        <mxCell id="PkI1gQ4OXZkmpvxFJ7Tn-54" value="" style="endArrow=block;dashed=1;endFill=0;endSize=12;html=1;rounded=0;entryX=0.5;entryY=1;entryDx=0;entryDy=0;exitX=0.5;exitY=0;exitDx=0;exitDy=0;" parent="1" source="PkI1gQ4OXZkmpvxFJ7Tn-53" target="PkI1gQ4OXZkmpvxFJ7Tn-46" edge="1">
          <mxGeometry width="160" relative="1" as="geometry">
            <mxPoint x="-240" y="-1714" as="sourcePoint" />
            <mxPoint x="-240" y="-1754" as="targetPoint" />
          </mxGeometry>
        </mxCell>
        <mxCell id="PkI1gQ4OXZkmpvxFJ7Tn-56" value="&lt;p style=&quot;margin:0px;margin-top:4px;text-align:center;&quot;&gt;&lt;b&gt;GetDataFromURLIntoFile&lt;/b&gt;&lt;/p&gt;&lt;hr size=&quot;1&quot;&gt;&lt;p style=&quot;margin:0px;margin-left:4px;&quot;&gt;&lt;/p&gt;&lt;p style=&quot;margin:0px;margin-left:4px;&quot;&gt;&lt;br&gt;&lt;/p&gt;" style="verticalAlign=top;align=left;overflow=fill;fontSize=12;fontFamily=Helvetica;html=1;" parent="1" vertex="1">
          <mxGeometry x="230" y="-1510" width="150" height="50" as="geometry" />
        </mxCell>
        <mxCell id="PkI1gQ4OXZkmpvxFJ7Tn-57" value="" style="endArrow=block;dashed=1;endFill=0;endSize=12;html=1;rounded=0;exitX=0.373;exitY=0;exitDx=0;exitDy=0;exitPerimeter=0;" parent="1" source="PkI1gQ4OXZkmpvxFJ7Tn-56" edge="1">
          <mxGeometry width="160" relative="1" as="geometry">
            <mxPoint x="335" y="-1510" as="sourcePoint" />
            <mxPoint x="335" y="-1570" as="targetPoint" />
            <Array as="points">
              <mxPoint x="286" y="-1530" />
              <mxPoint x="335" y="-1530" />
            </Array>
          </mxGeometry>
        </mxCell>
        <mxCell id="PkI1gQ4OXZkmpvxFJ7Tn-59" value="&lt;p style=&quot;margin:0px;margin-top:4px;text-align:center;&quot;&gt;&lt;b&gt;InsertDataFromFileIntoPostgresqlDB&lt;/b&gt;&lt;/p&gt;&lt;hr size=&quot;1&quot;&gt;&lt;p style=&quot;margin:0px;margin-left:4px;&quot;&gt;&lt;/p&gt;&lt;p style=&quot;margin:0px;margin-left:4px;&quot;&gt;&lt;br&gt;&lt;/p&gt;" style="verticalAlign=top;align=left;overflow=fill;fontSize=12;fontFamily=Helvetica;html=1;" parent="1" vertex="1">
          <mxGeometry x="390" y="-1510" width="210" height="50" as="geometry" />
        </mxCell>
        <mxCell id="PkI1gQ4OXZkmpvxFJ7Tn-61" value="" style="endArrow=block;dashed=1;endFill=0;endSize=12;html=1;rounded=0;exitX=0.594;exitY=-0.02;exitDx=0;exitDy=0;exitPerimeter=0;" parent="1" source="PkI1gQ4OXZkmpvxFJ7Tn-59" edge="1">
          <mxGeometry width="160" relative="1" as="geometry">
            <mxPoint x="345" y="-1500" as="sourcePoint" />
            <mxPoint x="334" y="-1570" as="targetPoint" />
            <Array as="points">
              <mxPoint x="515" y="-1530" />
              <mxPoint x="334" y="-1530" />
            </Array>
          </mxGeometry>
        </mxCell>
        <mxCell id="PkI1gQ4OXZkmpvxFJ7Tn-62" value="" style="endArrow=block;dashed=1;endFill=0;endSize=12;html=1;rounded=0;entryX=0.5;entryY=1;entryDx=0;entryDy=0;exitX=0.406;exitY=-0.006;exitDx=0;exitDy=0;exitPerimeter=0;" parent="1" source="PkI1gQ4OXZkmpvxFJ7Tn-63" edge="1">
          <mxGeometry width="160" relative="1" as="geometry">
            <mxPoint x="690" y="-1510" as="sourcePoint" />
            <mxPoint x="754.5" y="-1570" as="targetPoint" />
            <Array as="points">
              <mxPoint x="685" y="-1530" />
              <mxPoint x="755" y="-1530" />
            </Array>
          </mxGeometry>
        </mxCell>
        <mxCell id="PkI1gQ4OXZkmpvxFJ7Tn-63" value="&lt;p style=&quot;margin:0px;margin-top:4px;text-align:center;&quot;&gt;&lt;b&gt;UpdatePostgresqlDBFromFile&lt;/b&gt;&lt;/p&gt;&lt;hr size=&quot;1&quot;&gt;&lt;p style=&quot;margin:0px;margin-left:4px;&quot;&gt;&lt;/p&gt;&lt;p style=&quot;margin:0px;margin-left:4px;&quot;&gt;&lt;br&gt;&lt;/p&gt;" style="verticalAlign=top;align=left;overflow=fill;fontSize=12;fontFamily=Helvetica;html=1;" parent="1" vertex="1">
          <mxGeometry x="615" y="-1510" width="175" height="50" as="geometry" />
        </mxCell>
        <mxCell id="PkI1gQ4OXZkmpvxFJ7Tn-64" value="&lt;p style=&quot;margin:0px;margin-top:4px;text-align:center;&quot;&gt;&lt;b&gt;UpdateFileFromURL&lt;/b&gt;&lt;/p&gt;&lt;hr size=&quot;1&quot;&gt;&lt;p style=&quot;margin:0px;margin-left:4px;&quot;&gt;&lt;/p&gt;&lt;p style=&quot;margin:0px;margin-left:4px;&quot;&gt;&lt;br&gt;&lt;/p&gt;" style="verticalAlign=top;align=left;overflow=fill;fontSize=12;fontFamily=Helvetica;html=1;" parent="1" vertex="1">
          <mxGeometry x="800" y="-1510" width="170" height="50" as="geometry" />
        </mxCell>
        <mxCell id="PkI1gQ4OXZkmpvxFJ7Tn-66" value="" style="endArrow=block;dashed=1;endFill=0;endSize=12;html=1;rounded=0;exitX=0.5;exitY=0;exitDx=0;exitDy=0;entryX=0.5;entryY=1;entryDx=0;entryDy=0;" parent="1" source="PkI1gQ4OXZkmpvxFJ7Tn-64" target="PkI1gQ4OXZkmpvxFJ7Tn-48" edge="1">
          <mxGeometry width="160" relative="1" as="geometry">
            <mxPoint x="600" y="-1570" as="sourcePoint" />
            <mxPoint x="760" y="-1560" as="targetPoint" />
            <Array as="points">
              <mxPoint x="885" y="-1530" />
              <mxPoint x="755" y="-1530" />
            </Array>
          </mxGeometry>
        </mxCell>
        <mxCell id="PkI1gQ4OXZkmpvxFJ7Tn-68" value="&lt;p style=&quot;margin:0px;margin-top:4px;text-align:center;&quot;&gt;&lt;i&gt;&amp;lt;&amp;lt;&lt;/i&gt;&lt;i style=&quot;border-color: var(--border-color);&quot;&gt;Abstract&lt;/i&gt;&lt;i&gt;&amp;gt;&amp;gt;&lt;/i&gt;&lt;br&gt;&lt;b&gt;DBInteraction&lt;/b&gt;&lt;/p&gt;&lt;hr size=&quot;1&quot;&gt;&lt;p style=&quot;margin:0px;margin-left:4px;&quot;&gt;interact_with_db()&lt;/p&gt;" style="verticalAlign=top;align=left;overflow=fill;fontSize=12;fontFamily=Helvetica;html=1;" parent="1" vertex="1">
          <mxGeometry x="30" y="-1630" width="150" height="60" as="geometry" />
        </mxCell>
        <mxCell id="PkI1gQ4OXZkmpvxFJ7Tn-69" value="&lt;p style=&quot;margin:0px;margin-top:4px;text-align:center;&quot;&gt;&lt;b&gt;PostgresqlRequest&lt;/b&gt;&lt;/p&gt;&lt;hr size=&quot;1&quot;&gt;&lt;p style=&quot;margin:0px;margin-left:4px;&quot;&gt;&lt;/p&gt;&lt;p style=&quot;margin:0px;margin-left:4px;&quot;&gt;&lt;br&gt;&lt;/p&gt;" style="verticalAlign=top;align=left;overflow=fill;fontSize=12;fontFamily=Helvetica;html=1;" parent="1" vertex="1">
          <mxGeometry x="20" y="-1510" width="170" height="50" as="geometry" />
        </mxCell>
        <mxCell id="PkI1gQ4OXZkmpvxFJ7Tn-70" value="" style="endArrow=block;dashed=1;endFill=0;endSize=12;html=1;rounded=0;entryX=0.5;entryY=1;entryDx=0;entryDy=0;exitX=0.5;exitY=0;exitDx=0;exitDy=0;" parent="1" edge="1">
          <mxGeometry width="160" relative="1" as="geometry">
            <mxPoint x="104.41" y="-1510" as="sourcePoint" />
            <mxPoint x="104.41" y="-1570" as="targetPoint" />
          </mxGeometry>
        </mxCell>
        <mxCell id="PkI1gQ4OXZkmpvxFJ7Tn-71" value="" style="endArrow=block;dashed=1;endFill=0;endSize=12;html=1;rounded=0;exitX=0.5;exitY=0;exitDx=0;exitDy=0;" parent="1" source="PkI1gQ4OXZkmpvxFJ7Tn-68" edge="1">
          <mxGeometry width="160" relative="1" as="geometry">
            <mxPoint x="90" y="-1680" as="sourcePoint" />
            <mxPoint x="250" y="-1680" as="targetPoint" />
            <Array as="points">
              <mxPoint x="105" y="-1650" />
              <mxPoint x="250" y="-1650" />
            </Array>
          </mxGeometry>
        </mxCell>
        <mxCell id="PkI1gQ4OXZkmpvxFJ7Tn-84" value="&lt;p style=&quot;margin:0px;margin-top:4px;text-align:center;&quot;&gt;&lt;i&gt;&amp;lt;&amp;lt;&lt;/i&gt;&lt;i style=&quot;border-color: var(--border-color);&quot;&gt;Abstract&lt;/i&gt;&lt;i&gt;&amp;gt;&amp;gt;&lt;/i&gt;&lt;br&gt;&lt;b&gt;Branch&lt;/b&gt;&lt;/p&gt;&lt;hr size=&quot;1&quot;&gt;&lt;p style=&quot;margin:0px;margin-left:4px;&quot;&gt;&lt;/p&gt;&lt;p style=&quot;margin:0px;margin-left:4px;&quot;&gt;do_branching()&lt;/p&gt;" style="verticalAlign=top;align=left;overflow=fill;fontSize=12;fontFamily=Helvetica;html=1;" parent="1" vertex="1">
          <mxGeometry x="950" y="-1640" width="160" height="60" as="geometry" />
        </mxCell>
        <mxCell id="PkI1gQ4OXZkmpvxFJ7Tn-85" value="&lt;p style=&quot;margin:0px;margin-top:4px;text-align:center;&quot;&gt;&lt;b&gt;BranchUnderCondition&lt;/b&gt;&lt;/p&gt;&lt;hr size=&quot;1&quot;&gt;&lt;p style=&quot;margin:0px;margin-left:4px;&quot;&gt;&lt;/p&gt;&lt;p style=&quot;margin:0px;margin-left:4px;&quot;&gt;&lt;br&gt;&lt;/p&gt;" style="verticalAlign=top;align=left;overflow=fill;fontSize=12;fontFamily=Helvetica;html=1;" parent="1" vertex="1">
          <mxGeometry x="998" y="-1510" width="170" height="50" as="geometry" />
        </mxCell>
        <mxCell id="PkI1gQ4OXZkmpvxFJ7Tn-86" value="" style="endArrow=block;dashed=1;endFill=0;endSize=12;html=1;rounded=0;exitX=0.306;exitY=-0.029;exitDx=0;exitDy=0;exitPerimeter=0;" parent="1" source="PkI1gQ4OXZkmpvxFJ7Tn-85" edge="1">
          <mxGeometry width="160" relative="1" as="geometry">
            <mxPoint x="840" y="-1570" as="sourcePoint" />
            <mxPoint x="1050" y="-1580" as="targetPoint" />
          </mxGeometry>
        </mxCell>
        <mxCell id="PkI1gQ4OXZkmpvxFJ7Tn-87" value="" style="endArrow=block;dashed=1;endFill=0;endSize=12;html=1;rounded=0;exitX=0.407;exitY=0.002;exitDx=0;exitDy=0;exitPerimeter=0;" parent="1" source="PkI1gQ4OXZkmpvxFJ7Tn-84" edge="1">
          <mxGeometry width="160" relative="1" as="geometry">
            <mxPoint x="940" y="-1690" as="sourcePoint" />
            <mxPoint x="250" y="-1680" as="targetPoint" />
            <Array as="points">
              <mxPoint x="1010" y="-1650" />
              <mxPoint x="250" y="-1650" />
            </Array>
          </mxGeometry>
        </mxCell>
        <mxCell id="PkI1gQ4OXZkmpvxFJ7Tn-90" value="" style="endArrow=block;dashed=1;endFill=0;endSize=12;html=1;rounded=0;" parent="1" edge="1">
          <mxGeometry width="160" relative="1" as="geometry">
            <mxPoint x="650" y="-1510" as="sourcePoint" />
            <mxPoint x="810" y="-1510" as="targetPoint" />
          </mxGeometry>
        </mxCell>
        <mxCell id="9KBdcmIZllk7k-SYJM85-14" value="&lt;p style=&quot;margin:0px;margin-top:4px;text-align:center;&quot;&gt;&lt;i&gt;&amp;lt;&amp;lt;Abstract&amp;gt;&amp;gt;&lt;/i&gt;&lt;br&gt;&lt;b&gt;DAGConfigurator&lt;/b&gt;&lt;/p&gt;&lt;hr size=&quot;1&quot;&gt;&lt;p style=&quot;margin:0px;margin-left:4px;&quot;&gt;&lt;/p&gt;&lt;p style=&quot;margin:0px;margin-left:4px;&quot;&gt;create_dag()&lt;br&gt;&lt;/p&gt;&lt;p style=&quot;margin:0px;margin-left:4px;&quot;&gt;add_task()&lt;/p&gt;" style="verticalAlign=top;align=left;overflow=fill;fontSize=12;fontFamily=Helvetica;html=1;" parent="1" vertex="1">
          <mxGeometry x="-210" y="-2090" width="190" height="80" as="geometry" />
        </mxCell>
        <mxCell id="9KBdcmIZllk7k-SYJM85-20" value="Use" style="endArrow=open;endSize=12;dashed=1;html=1;rounded=0;" parent="1" edge="1">
          <mxGeometry width="160" relative="1" as="geometry">
            <mxPoint x="170" y="-1934" as="sourcePoint" />
            <mxPoint x="-40" y="-1934" as="targetPoint" />
          </mxGeometry>
        </mxCell>
        <mxCell id="9KBdcmIZllk7k-SYJM85-22" value="" style="endArrow=block;dashed=1;endFill=0;endSize=12;html=1;rounded=0;entryX=1;entryY=0.5;entryDx=0;entryDy=0;exitX=0.563;exitY=-0.02;exitDx=0;exitDy=0;exitPerimeter=0;" parent="1" source="PkI1gQ4OXZkmpvxFJ7Tn-19" target="9KBdcmIZllk7k-SYJM85-14" edge="1">
          <mxGeometry width="160" relative="1" as="geometry">
            <mxPoint x="50" y="-2070" as="sourcePoint" />
            <mxPoint x="210" y="-2070" as="targetPoint" />
            <Array as="points">
              <mxPoint x="265" y="-2050" />
            </Array>
          </mxGeometry>
        </mxCell>
        <mxCell id="9KBdcmIZllk7k-SYJM85-23" value="Use" style="endArrow=open;endSize=12;dashed=1;html=1;rounded=0;exitX=0.5;exitY=1;exitDx=0;exitDy=0;" parent="1" source="PkI1gQ4OXZkmpvxFJ7Tn-53" edge="1" target="9KBdcmIZllk7k-SYJM85-24">
          <mxGeometry width="160" relative="1" as="geometry">
            <mxPoint x="-370" y="-1450" as="sourcePoint" />
            <mxPoint x="-385" y="-1479" as="targetPoint" />
          </mxGeometry>
        </mxCell>
        <mxCell id="9KBdcmIZllk7k-SYJM85-24" value="&lt;&lt;Entity&gt;&gt;&#xa;DBConfigurator" style="swimlane;childLayout=stackLayout;horizontal=1;startSize=30;horizontalStack=0;rounded=1;fontSize=14;fontStyle=0;strokeWidth=2;resizeParent=0;resizeLast=1;shadow=0;dashed=0;align=center;" parent="1" vertex="1">
          <mxGeometry x="-550" y="-1530" width="160" height="70" as="geometry" />
        </mxCell>
        <mxCell id="9KBdcmIZllk7k-SYJM85-27" value="&lt;&lt;Entity&gt;&gt;&#xa;SimpleDAGConfigurator" style="swimlane;childLayout=stackLayout;horizontal=1;startSize=30;horizontalStack=0;rounded=1;fontSize=14;fontStyle=0;strokeWidth=2;resizeParent=0;resizeLast=1;shadow=0;dashed=0;align=center;" parent="1" vertex="1">
          <mxGeometry x="-200" y="-1960" width="160" height="70" as="geometry" />
        </mxCell>
        <mxCell id="9KBdcmIZllk7k-SYJM85-28" value="&lt;&lt;Entity&gt;&gt;&#xa;ImportDataConfigurator" style="swimlane;childLayout=stackLayout;horizontal=1;startSize=30;horizontalStack=0;rounded=1;fontSize=14;fontStyle=0;strokeWidth=2;resizeParent=0;resizeLast=1;shadow=0;dashed=0;align=center;" parent="1" vertex="1">
          <mxGeometry x="-195" y="-1390" width="160" height="60" as="geometry" />
        </mxCell>
        <mxCell id="9KBdcmIZllk7k-SYJM85-30" value="Use" style="endArrow=open;endSize=12;dashed=1;html=1;rounded=0;exitX=0.002;exitY=0.58;exitDx=0;exitDy=0;entryX=1;entryY=0.5;entryDx=0;entryDy=0;exitPerimeter=0;" parent="1" target="9KBdcmIZllk7k-SYJM85-28" edge="1">
          <mxGeometry width="160" relative="1" as="geometry">
            <mxPoint x="290" y="-1460" as="sourcePoint" />
            <mxPoint x="105" y="-1458" as="targetPoint" />
            <Array as="points">
              <mxPoint x="-10" y="-1370" />
            </Array>
          </mxGeometry>
        </mxCell>
        <mxCell id="9KBdcmIZllk7k-SYJM85-31" value="&lt;&lt;Entity&gt;&gt;&#xa;TaskConfigurator" style="swimlane;childLayout=stackLayout;horizontal=1;startSize=30;horizontalStack=0;rounded=1;fontSize=14;fontStyle=0;strokeWidth=2;resizeParent=0;resizeLast=1;shadow=0;dashed=0;align=center;" parent="1" vertex="1">
          <mxGeometry x="-250" y="-1765" width="160" height="70" as="geometry" />
        </mxCell>
        <mxCell id="9KBdcmIZllk7k-SYJM85-34" value="Use" style="endArrow=open;endSize=12;dashed=1;html=1;rounded=0;exitX=0;exitY=0.5;exitDx=0;exitDy=0;entryX=1;entryY=0.5;entryDx=0;entryDy=0;" parent="1" source="PkI1gQ4OXZkmpvxFJ7Tn-45" target="9KBdcmIZllk7k-SYJM85-31" edge="1">
          <mxGeometry width="160" relative="1" as="geometry">
            <mxPoint x="-90" y="-1720" as="sourcePoint" />
            <mxPoint x="70" y="-1720" as="targetPoint" />
          </mxGeometry>
        </mxCell>
        <mxCell id="KlyP1dOgHS7hfKFTwU7P-3" value="" style="endArrow=diamondThin;endFill=0;endSize=24;html=1;rounded=0;exitX=0.5;exitY=0;exitDx=0;exitDy=0;" edge="1" parent="1" source="PkI1gQ4OXZkmpvxFJ7Tn-45">
          <mxGeometry width="160" relative="1" as="geometry">
            <mxPoint x="100" y="-1880" as="sourcePoint" />
            <mxPoint x="260" y="-1880" as="targetPoint" />
          </mxGeometry>
        </mxCell>
        <mxCell id="KlyP1dOgHS7hfKFTwU7P-4" value="" style="endArrow=diamondThin;endFill=0;endSize=24;html=1;rounded=0;exitX=0.75;exitY=0;exitDx=0;exitDy=0;" edge="1" parent="1" source="9KBdcmIZllk7k-SYJM85-31">
          <mxGeometry width="160" relative="1" as="geometry">
            <mxPoint x="-290" y="-1890" as="sourcePoint" />
            <mxPoint x="-130" y="-1890" as="targetPoint" />
          </mxGeometry>
        </mxCell>
        <mxCell id="KlyP1dOgHS7hfKFTwU7P-5" value="Operators" style="shape=module;align=left;spacingLeft=20;align=center;verticalAlign=top;" vertex="1" parent="1">
          <mxGeometry x="470" y="-1290" width="100" height="50" as="geometry" />
        </mxCell>
        <mxCell id="KlyP1dOgHS7hfKFTwU7P-6" value="Use" style="endArrow=open;endSize=12;dashed=1;html=1;rounded=0;entryX=0.25;entryY=0;entryDx=0;entryDy=0;" edge="1" parent="1" target="KlyP1dOgHS7hfKFTwU7P-5">
          <mxGeometry width="160" relative="1" as="geometry">
            <mxPoint x="100" y="-1460" as="sourcePoint" />
            <mxPoint x="240" y="-1270" as="targetPoint" />
          </mxGeometry>
        </mxCell>
        <mxCell id="KlyP1dOgHS7hfKFTwU7P-8" value="Text" style="edgeLabel;html=1;align=center;verticalAlign=middle;resizable=0;points=[];" vertex="1" connectable="0" parent="KlyP1dOgHS7hfKFTwU7P-6">
          <mxGeometry x="0.2798" y="5" relative="1" as="geometry">
            <mxPoint y="-1" as="offset" />
          </mxGeometry>
        </mxCell>
        <mxCell id="KlyP1dOgHS7hfKFTwU7P-9" value="Use" style="endArrow=open;endSize=12;dashed=1;html=1;rounded=0;entryX=0.5;entryY=0;entryDx=0;entryDy=0;" edge="1" parent="1" target="KlyP1dOgHS7hfKFTwU7P-5">
          <mxGeometry width="160" relative="1" as="geometry">
            <mxPoint x="320" y="-1460" as="sourcePoint" />
            <mxPoint x="460" y="-1270" as="targetPoint" />
          </mxGeometry>
        </mxCell>
        <mxCell id="KlyP1dOgHS7hfKFTwU7P-10" value="Text" style="edgeLabel;html=1;align=center;verticalAlign=middle;resizable=0;points=[];" vertex="1" connectable="0" parent="KlyP1dOgHS7hfKFTwU7P-9">
          <mxGeometry x="0.2798" y="5" relative="1" as="geometry">
            <mxPoint y="-1" as="offset" />
          </mxGeometry>
        </mxCell>
        <mxCell id="KlyP1dOgHS7hfKFTwU7P-11" value="Use" style="endArrow=open;endSize=12;dashed=1;html=1;rounded=0;entryX=0.75;entryY=0;entryDx=0;entryDy=0;" edge="1" parent="1" target="KlyP1dOgHS7hfKFTwU7P-5">
          <mxGeometry width="160" relative="1" as="geometry">
            <mxPoint x="500" y="-1460" as="sourcePoint" />
            <mxPoint x="450" y="-1260" as="targetPoint" />
          </mxGeometry>
        </mxCell>
        <mxCell id="KlyP1dOgHS7hfKFTwU7P-12" value="Text" style="edgeLabel;html=1;align=center;verticalAlign=middle;resizable=0;points=[];" vertex="1" connectable="0" parent="KlyP1dOgHS7hfKFTwU7P-11">
          <mxGeometry x="0.2798" y="5" relative="1" as="geometry">
            <mxPoint y="-1" as="offset" />
          </mxGeometry>
        </mxCell>
        <mxCell id="KlyP1dOgHS7hfKFTwU7P-13" value="Use" style="endArrow=open;endSize=12;dashed=1;html=1;rounded=0;entryX=1;entryY=0.25;entryDx=0;entryDy=0;" edge="1" parent="1" target="KlyP1dOgHS7hfKFTwU7P-5">
          <mxGeometry width="160" relative="1" as="geometry">
            <mxPoint x="680" y="-1460" as="sourcePoint" />
            <mxPoint x="840" y="-1460" as="targetPoint" />
          </mxGeometry>
        </mxCell>
        <mxCell id="KlyP1dOgHS7hfKFTwU7P-14" value="Use" style="endArrow=open;endSize=12;dashed=1;html=1;rounded=0;entryX=1;entryY=0.75;entryDx=0;entryDy=0;" edge="1" parent="1" target="KlyP1dOgHS7hfKFTwU7P-5">
          <mxGeometry width="160" relative="1" as="geometry">
            <mxPoint x="850" y="-1460" as="sourcePoint" />
            <mxPoint x="1010" y="-1460" as="targetPoint" />
          </mxGeometry>
        </mxCell>
        <mxCell id="KlyP1dOgHS7hfKFTwU7P-15" value="Use" style="endArrow=open;endSize=12;dashed=1;html=1;rounded=0;entryX=1;entryY=1;entryDx=0;entryDy=0;" edge="1" parent="1" target="KlyP1dOgHS7hfKFTwU7P-5">
          <mxGeometry width="160" relative="1" as="geometry">
            <mxPoint x="1010" y="-1460" as="sourcePoint" />
            <mxPoint x="1170" y="-1460" as="targetPoint" />
          </mxGeometry>
        </mxCell>
      </root>
    </mxGraphModel>
  </diagram>
</mxfile>
